HIERARCHY
ROOT Hips
{
	OFFSET -14.64140 90.27770 -84.91600
	CHANNELS 6 Xposition Yposition Zposition Zrotation Xrotation Yrotation
	JOINT Spine
	{
		OFFSET 0.00000 13.20850 -1.60436
		CHANNELS 3 Zrotation Xrotation Yrotation
		JOINT Spine1
		{
			OFFSET 0.00000 8.61716 0.00000
			CHANNELS 3 Zrotation Xrotation Yrotation
			JOINT Spine2
			{
				OFFSET 0.00000 8.61717 0.00000
				CHANNELS 3 Zrotation Xrotation Yrotation
				JOINT Spine3
				{
					OFFSET 0.00000 8.61717 0.00000
					CHANNELS 3 Zrotation Xrotation Yrotation
					JOINT Neck
					{
						OFFSET 0.00000 11.07920 1.10792
						CHANNELS 3 Zrotation Xrotation Yrotation
						JOINT Neck1
						{
							OFFSET 0.00000 7.08032 0.00000
							CHANNELS 3 Zrotation Xrotation Yrotation
							JOINT Head
							{
								OFFSET 0.00000 7.08031 0.00000
								CHANNELS 3 Zrotation Xrotation Yrotation
								End site
								{
									OFFSET 0.00000 0.00000 0.00000
								}
							}
						}
					}
					JOINT RightShoulder
					{
						OFFSET -0.01000 7.91373 5.19711
						CHANNELS 3 Zrotation Xrotation Yrotation
						JOINT RightArm
						{
							OFFSET -18.41580 0.00000 0.00000
							CHANNELS 3 Zrotation Xrotation Yrotation
							JOINT RightForeArm
							{
								OFFSET -29.11090 0.00000 0.00000
								CHANNELS 3 Zrotation Xrotation Yrotation
								JOINT RightHand
								{
									OFFSET -24.65040 0.00000 0.00000
									CHANNELS 3 Zrotation Xrotation Yrotation
									JOINT RightHandThumb1
									{
										OFFSET -5.35114 -0.85590 3.97906
										CHANNELS 3 Zrotation Xrotation Yrotation
										JOINT RightHandThumb2
										{
											OFFSET -4.52789 0.00000 0.00000
											CHANNELS 3 Zrotation Xrotation Yrotation
											JOINT RightHandThumb3
											{
												OFFSET -2.46976 0.00000 0.00000
												CHANNELS 3 Zrotation Xrotation Yrotation
												End site
												{
													OFFSET 0.00000 0.00000 0.00000
												}
											}
										}
									}
									JOINT RightHandIndex1
									{
										OFFSET -14.26970 0.00000 2.88139
										CHANNELS 3 Zrotation Xrotation Yrotation
										JOINT RightHandIndex2
										{
											OFFSET -5.48836 0.00000 0.00000
											CHANNELS 3 Zrotation Xrotation Yrotation
											JOINT RightHandIndex3
											{
												OFFSET -3.01859 0.00000 0.00000
												CHANNELS 3 Zrotation Xrotation Yrotation
												End site
												{
													OFFSET 0.00000 0.00000 0.00000
												}
											}
										}
									}
									JOINT RightHandMiddle1
									{
										OFFSET -14.26970 0.00000 -0.09147
										CHANNELS 3 Zrotation Xrotation Yrotation
										JOINT RightHandMiddle2
										{
											OFFSET -6.17441 0.00000 0.00000
											CHANNELS 3 Zrotation Xrotation Yrotation
											JOINT RightHandMiddle3
											{
												OFFSET -3.56743 0.00000 0.00000
												CHANNELS 3 Zrotation Xrotation Yrotation
												End site
												{
													OFFSET 0.00000 0.00000 0.00000
												}
											}
										}
									}
									JOINT RightHandRing1
									{
										OFFSET -12.69180 0.00000 -3.06433
										CHANNELS 3 Zrotation Xrotation Yrotation
										JOINT RightHandRing2
										{
											OFFSET -5.62556 0.00000 0.00000
											CHANNELS 3 Zrotation Xrotation Yrotation
											JOINT RightHandRing3
											{
												OFFSET -3.56744 0.00000 0.00000
												CHANNELS 3 Zrotation Xrotation Yrotation
												End site
												{
													OFFSET 0.00000 0.00000 0.00000
												}
											}
										}
									}
									JOINT RightHandPinky1
									{
										OFFSET -11.11390 0.00000 -6.03719
										CHANNELS 3 Zrotation Xrotation Yrotation
										JOINT RightHandPinky2
										{
											OFFSET -4.52789 0.00000 0.00000
											CHANNELS 3 Zrotation Xrotation Yrotation
											JOINT RightHandPinky3
											{
												OFFSET -2.46976 0.00000 0.00000
												CHANNELS 3 Zrotation Xrotation Yrotation
												End site
												{
													OFFSET 0.00000 0.00000 0.00000
												}
											}
										}
									}
								}
							}
						}
					}
					JOINT LeftShoulder
					{
						OFFSET 0.01000 7.91373 5.19711
						CHANNELS 3 Zrotation Xrotation Yrotation
						JOINT LeftArm
						{
							OFFSET 18.41580 0.00000 0.00000
							CHANNELS 3 Zrotation Xrotation Yrotation
							JOINT LeftForeArm
							{
								OFFSET 29.11090 0.00000 0.00000
								CHANNELS 3 Zrotation Xrotation Yrotation
								JOINT LeftHand
								{
									OFFSET 24.65040 0.00000 0.00000
									CHANNELS 3 Zrotation Xrotation Yrotation
									JOINT LeftHandThumb1
									{
										OFFSET 5.35114 -0.85590 3.97906
										CHANNELS 3 Zrotation Xrotation Yrotation
										JOINT LeftHandThumb2
										{
											OFFSET 4.52789 0.00000 0.00000
											CHANNELS 3 Zrotation Xrotation Yrotation
											JOINT LeftHandThumb3
											{
												OFFSET 2.46977 0.00000 0.00000
												CHANNELS 3 Zrotation Xrotation Yrotation
												End site
												{
													OFFSET 0.00000 0.00000 0.00000
												}
											}
										}
									}
									JOINT LeftHandIndex1
									{
										OFFSET 14.26970 0.00000 2.88139
										CHANNELS 3 Zrotation Xrotation Yrotation
										JOINT LeftHandIndex2
										{
											OFFSET 5.48836 0.00000 0.00000
											CHANNELS 3 Zrotation Xrotation Yrotation
											JOINT LeftHandIndex3
											{
												OFFSET 3.01859 0.00000 0.00000
												CHANNELS 3 Zrotation Xrotation Yrotation
												End site
												{
													OFFSET 0.00000 0.00000 0.00000
												}
											}
										}
									}
									JOINT LeftHandMiddle1
									{
										OFFSET 14.26970 0.00000 -0.09147
										CHANNELS 3 Zrotation Xrotation Yrotation
										JOINT LeftHandMiddle2
										{
											OFFSET 6.17440 0.00000 0.00000
											CHANNELS 3 Zrotation Xrotation Yrotation
											JOINT LeftHandMiddle3
											{
												OFFSET 3.56744 0.00000 0.00000
												CHANNELS 3 Zrotation Xrotation Yrotation
												End site
												{
													OFFSET 0.00000 0.00000 0.00000
												}
											}
										}
									}
									JOINT LeftHandRing1
									{
										OFFSET 12.69180 0.00000 -3.06433
										CHANNELS 3 Zrotation Xrotation Yrotation
										JOINT LeftHandRing2
										{
											OFFSET 5.62556 0.00000 0.00000
											CHANNELS 3 Zrotation Xrotation Yrotation
											JOINT LeftHandRing3
											{
												OFFSET 3.56744 0.00000 0.00000
												CHANNELS 3 Zrotation Xrotation Yrotation
												End site
												{
													OFFSET 0.00000 0.00000 0.00000
												}
											}
										}
									}
									JOINT LeftHandPinky1
									{
										OFFSET 11.11390 0.00000 -6.03719
										CHANNELS 3 Zrotation Xrotation Yrotation
										JOINT LeftHandPinky2
										{
											OFFSET 4.52789 0.00000 0.00000
											CHANNELS 3 Zrotation Xrotation Yrotation
											JOINT LeftHandPinky3
											{
												OFFSET 2.46976 0.00000 0.00000
												CHANNELS 3 Zrotation Xrotation Yrotation
												End site
												{
													OFFSET 0.00000 0.00000 0.00000
												}
											}
										}
									}
								}
							}
						}
					}
					JOINT pCube4
					{
						OFFSET 0.00000 10.91090 1.10792
						CHANNELS 3 Zrotation Xrotation Yrotation
						End site
						{
							OFFSET 0.00000 0.00000 0.00000
						}
					}
				}
			}
		}
	}
	JOINT RightUpLeg
	{
		OFFSET -9.98441 0.00000 0.00000
		CHANNELS 3 Zrotation Xrotation Yrotation
		JOINT RightLeg
		{
			OFFSET 0.00000 -42.11790 0.00000
			CHANNELS 3 Zrotation Xrotation Yrotation
			JOINT RightFoot
			{
				OFFSET 0.00000 -45.00020 -0.00001
				CHANNELS 3 Zrotation Xrotation Yrotation
				JOINT RightForeFoot
				{
					OFFSET 0.00000 -3.74820 0.00000
					CHANNELS 3 Zrotation Xrotation Yrotation
					JOINT RightToeBase
					{
						OFFSET 0.00000 0.06325 14.43120
						CHANNELS 3 Zrotation Xrotation Yrotation
						End site
						{
							OFFSET 0.00000 0.00000 0.00000
						}
					}
				}
			}
		}
	}
	JOINT LeftUpLeg
	{
		OFFSET 9.98441 0.00000 0.00000
		CHANNELS 3 Zrotation Xrotation Yrotation
		JOINT LeftLeg
		{
			OFFSET 0.00000 -42.11800 0.00000
			CHANNELS 3 Zrotation Xrotation Yrotation
			JOINT LeftFoot
			{
				OFFSET 0.00000 -45.00070 0.00000
				CHANNELS 3 Zrotation Xrotation Yrotation
				JOINT LeftForeFoot
				{
					OFFSET 0.00000 -3.74824 0.00000
					CHANNELS 3 Zrotation Xrotation Yrotation
					JOINT LeftToeBase
					{
						OFFSET 0.00000 0.06325 14.43110
						CHANNELS 3 Zrotation Xrotation Yrotation
						End site
						{
							OFFSET 0.00000 0.00000 0.00000
						}
					}
				}
			}
		}
	}
}
MOTION
Frames: 4
Frame Time: 0.050000
0.0 0.0 0.0 0.0 0.0 0.0 4.57476904880517 3.1416020134177494 -2.1181620824355107 -0.7722134389982563 3.5291134533256554 0.3721044654407231 -0.6449924470344899 -1.0668680484173723 -0.13967711233986732 -0.37099966377503585 -0.2510266671329809 -0.43884023476376144 -0.15299903576534876 12.318555801478594 -0.9873326580329125 0.3327331052759489 -0.4565090249574788 -1.4166409065096908 0.6949509624878764 -16.774539955264302 -0.15866903910187463 -9.33777541029347 3.169771908990039 -18.480879202298965 77.43602153326563 5.38888177811774 -0.16794430751479597 -17.655805581333833 -4.47480751888858 59.28151092352138 22.354135222586404 -0.26088791843060044 -7.226580118570824 4.52871 -0.12703 -1.59312 -4.64595e-06 9.01534e-06 -56.2342 8.23465e-06 -9.55045e-07 -56.2342 -38.7697 2.616e-06 -3.03728e-06 1.51694e-05 2.54582e-06 3.19778e-06 -3.36779e-06 6.40269e-06 -1.74067e-06 -36.6938 -3.44578e-06 4.82161e-06 1.03628e-05 2.25643e-06 -1.00237e-06 -1.59028e-15 3.18055e-15 1.90833e-14 -19.7583 1.99729e-06 9.82298e-07 1.19088e-05 -1.70535e-06 -1.47446e-06 -7.95139e-16 3.57812e-15 3.18055e-15 24.0542 -1.29415e-06 -2.03572e-07 28.8651 4.69993e-06 -2.49464e-06 28.8651 4.67541e-06 2.50252e-06 10.16417923675652 2.404171795928893 15.259403773393117 -72.68198861246059 19.897473430116186 -13.875344798009825 -40.63917101161673 6.694080194566964 -90.54843436637371 -21.729785683304392 -9.755418641274925 6.562539621914309 -0.474211 0.0677175 -8.12381 -7.57701e-06 -7.52602e-07 44.5675 -2.34874e-06 -9.76287e-07 44.5675 12.4601 -8.06117e-07 4.96022e-06 -1.98259e-05 -5.83324e-07 -1.40447e-07 -3.18055e-15 1.59028e-15 -9.54166e-15 11.1059 -5.13129e-07 -3.38467e-06 3.12111e-07 1.50825e-07 1.16352e-06 5.56875e-08 -1.53149e-07 -1.37717e-07 4.77241 1.48801e-06 -1.13665e-06 -2.79682e-07 7.26536e-07 7.29834e-07 -1.95777e-07 5.08575e-07 5.10883e-07 -5.60077 7.82297e-07 -2.03231e-07 -6.72092 -3.47366e-06 4.68464e-06 -6.72092 -1.30631e-08 -7.87263e-07 -1.19271e-15 1.09925e-15 -3.18055e-15 8.04465 3.49397 -19.2195 -2.21424e-05 10.395 0.0142586 -5.62103 -15.6599 3.19225 3.97569e-16 7.95139e-16 -1.59028e-15 1.81331e-08 4.69756 -4.30096e-07 12.4594 -8.23857 6.88324 1.34357e-05 46.3794 0.00174233 -4.32522 -14.7485 -3.83531 3.18055e-15 -3.18055e-15 9.54166e-15 1.35867e-07 -10.745 -2.59575e-06
0.0 0.0 0.0 0.0 0.0 0.0 4.450497037293953 3.1175887664622817 -2.099590567103151 -0.77236873428611 3.519623408425276 0.3745481831819876 -0.6646555548277006 -1.0763737410198717 -0.04967449115544685 -0.41465478779951565 -0.2600602287803818 -0.43050982607562094 -0.10068794577470813 12.22366631656989 -1.018707005731223 0.35088550852682565 -0.48571982790852436 -1.604524333267676 0.7349460469857308 -16.807230525913035 -0.1769883356568492 -9.32387497902554 3.1740759191732675 -18.453155711253814 77.74916904063609 5.179158510742974 -0.06279061916869397 -18.04106735682255 -4.717296234316304 59.700430642762264 22.50791003238453 -0.24902602522657027 -7.375410880388538 4.52871 -0.12703 -1.59312 -4.64595e-06 9.01534e-06 -56.2342 8.23465e-06 -9.55045e-07 -56.2342 -38.7697 2.616e-06 -3.03728e-06 1.51694e-05 2.54582e-06 3.19778e-06 -3.36779e-06 6.40269e-06 -1.74067e-06 -36.6938 -3.44578e-06 4.82161e-06 1.03628e-05 2.25643e-06 -1.00237e-06 -1.59028e-15 3.18055e-15 1.90833e-14 -19.7583 1.99729e-06 9.82298e-07 1.19088e-05 -1.70535e-06 -1.47446e-06 -7.95139e-16 3.57812e-15 3.18055e-15 24.0542 -1.29415e-06 -2.03572e-07 28.8651 4.69993e-06 -2.49464e-06 28.8651 4.67541e-06 2.50252e-06 9.96351872270161 2.370470250413753 15.26034972811803 -73.59832244412631 19.610103946335943 -12.589770711997893 -43.74785586188948 6.817262067700253 -90.9877997514366 -21.714340873616433 -9.847897682095882 6.665866464211261 -0.474211 0.0677175 -8.12381 -7.57701e-06 -7.52602e-07 44.5675 -2.34874e-06 -9.76287e-07 44.5675 12.4601 -8.06117e-07 4.96022e-06 -1.98259e-05 -5.83324e-07 -1.40447e-07 -3.18055e-15 1.59028e-15 -9.54166e-15 11.1059 -5.13129e-07 -3.38467e-06 3.12111e-07 1.50825e-07 1.16352e-06 5.56875e-08 -1.53149e-07 -1.37717e-07 4.77241 1.48801e-06 -1.13665e-06 -2.79682e-07 7.26536e-07 7.29834e-07 -1.95777e-07 5.08575e-07 5.10883e-07 -5.60077 7.82297e-07 -2.03231e-07 -6.72092 -3.47366e-06 4.68464e-06 -6.72092 -1.30631e-08 -7.87263e-07 -1.19271e-15 1.09925e-15 -3.18055e-15 8.04465 3.49397 -19.2195 -2.21424e-05 10.395 0.0142586 -5.62103 -15.6599 3.19225 3.97569e-16 7.95139e-16 -1.59028e-15 1.81331e-08 4.69756 -4.30096e-07 12.4594 -8.23857 6.88324 1.34357e-05 46.3794 0.00174233 -4.32522 -14.7485 -3.83531 3.18055e-15 -3.18055e-15 9.54166e-15 1.35867e-07 -10.745 -2.59575e-06
0.0 0.0 0.0 0.0 0.0 0.0 4.300507201645365 3.0179533159931333 -2.0803812080476285 -0.7687832626040457 3.517564272386541 0.3744165246976018 -0.6771391024559223 -1.1007175143768657 -0.024924372850728738 -0.4404219936670672 -0.28322864182790547 -0.4321127323882435 -0.09776118658142935 12.151108173342825 -0.9782613685250359 0.35485691516087886 -0.5163657549920135 -1.5807787950496612 0.732496000250222 -16.822818063904986 -0.17556982685510403 -9.212282754172394 3.1486272830929902 -18.367887853693812 78.35537029129122 4.15691965302383 0.1384982781643325 -16.767618458352057 -3.9314331978277806 58.41631051423299 22.138725376624848 -0.23972208203395315 -6.962892032268102 4.52871 -0.12703 -1.59312 -4.64595e-06 9.01534e-06 -56.2342 8.23465e-06 -9.55045e-07 -56.2342 -38.7697 2.616e-06 -3.03728e-06 1.51694e-05 2.54582e-06 3.19778e-06 -3.36779e-06 6.40269e-06 -1.74067e-06 -36.6938 -3.44578e-06 4.82161e-06 1.03628e-05 2.25643e-06 -1.00237e-06 -1.59028e-15 3.18055e-15 1.90833e-14 -19.7583 1.99729e-06 9.82298e-07 1.19088e-05 -1.70535e-06 -1.47446e-06 -7.95139e-16 3.57812e-15 3.18055e-15 24.0542 -1.29415e-06 -2.03572e-07 28.8651 4.69993e-06 -2.49464e-06 28.8651 4.67541e-06 2.50252e-06 9.817231742290192 2.340398478426125 15.223607858250706 -74.22640448197835 18.853417841439988 -12.094052800763821 -46.502405021504835 6.656367885359433 -91.43669644774674 -21.233904965242235 -9.549052389128546 6.3454663271965135 -0.474211 0.0677175 -8.12381 -7.57701e-06 -7.52602e-07 44.5675 -2.34874e-06 -9.76287e-07 44.5675 12.4601 -8.06117e-07 4.96022e-06 -1.98259e-05 -5.83324e-07 -1.40447e-07 -3.18055e-15 1.59028e-15 -9.54166e-15 11.1059 -5.13129e-07 -3.38467e-06 3.12111e-07 1.50825e-07 1.16352e-06 5.56875e-08 -1.53149e-07 -1.37717e-07 4.77241 1.48801e-06 -1.13665e-06 -2.79682e-07 7.26536e-07 7.29834e-07 -1.95777e-07 5.08575e-07 5.10883e-07 -5.60077 7.82297e-07 -2.03231e-07 -6.72092 -3.47366e-06 4.68464e-06 -6.72092 -1.30631e-08 -7.87263e-07 -1.19271e-15 1.09925e-15 -3.18055e-15 8.04465 3.49397 -19.2195 -2.21424e-05 10.395 0.0142586 -5.62103 -15.6599 3.19225 3.97569e-16 7.95139e-16 -1.59028e-15 1.81331e-08 4.69756 -4.30096e-07 12.4594 -8.23857 6.88324 1.34357e-05 46.3794 0.00174233 -4.32522 -14.7485 -3.83531 3.18055e-15 -3.18055e-15 9.54166e-15 1.35867e-07 -10.745 -2.59575e-06
0.0 0.0 0.0 0.0 0.0 0.0 4.246023781646496 2.8814822211204247 -2.0788102622571865 -0.7638621241446965 3.5164110497022527 0.37265352400535234 -0.6756608205976173 -1.1288647845127986 -0.04915414575798984 -0.45452771159326816 -0.31012155423989773 -0.43686369157519594 -0.14162682824561834 12.128077328832397 -0.8683268350086076 0.3507359046221359 -0.5242469491216515 -1.3141406183546378 0.6942783430660929 -16.81208508621219 -0.1523595048752069 -9.144353143697241 3.1323187431048227 -18.286858979123377 79.15172668971418 2.8174816067854627 0.3134984195159224 -14.61137445745949 -2.092947024721621 55.94573665467366 21.3704233744026 -0.2261784251289562 -6.336679254310427 4.52871 -0.12703 -1.59312 -4.64595e-06 9.01534e-06 -56.2342 8.23465e-06 -9.55045e-07 -56.2342 -38.7697 2.616e-06 -3.03728e-06 1.51694e-05 2.54582e-06 3.19778e-06 -3.36779e-06 6.40269e-06 -1.74067e-06 -36.6938 -3.44578e-06 4.82161e-06 1.03628e-05 2.25643e-06 -1.00237e-06 -1.59028e-15 3.18055e-15 1.90833e-14 -19.7583 1.99729e-06 9.82298e-07 1.19088e-05 -1.70535e-06 -1.47446e-06 -7.95139e-16 3.57812e-15 3.18055e-15 24.0542 -1.29415e-06 -2.03572e-07 28.8651 4.69993e-06 -2.49464e-06 28.8651 4.67541e-06 2.50252e-06 9.855362523534787 2.339595469324515 15.184889695258354 -74.46755380918572 17.932342672338105 -12.439172298565937 -47.46682795807293 6.017640041455032 -91.49381346404724 -20.414260412602403 -9.148697884728094 5.8031249396339835 -0.474211 0.0677175 -8.12381 -7.57701e-06 -7.52602e-07 44.5675 -2.34874e-06 -9.76287e-07 44.5675 12.4601 -8.06117e-07 4.96022e-06 -1.98259e-05 -5.83324e-07 -1.40447e-07 -3.18055e-15 1.59028e-15 -9.54166e-15 11.1059 -5.13129e-07 -3.38467e-06 3.12111e-07 1.50825e-07 1.16352e-06 5.56875e-08 -1.53149e-07 -1.37717e-07 4.77241 1.48801e-06 -1.13665e-06 -2.79682e-07 7.26536e-07 7.29834e-07 -1.95777e-07 5.08575e-07 5.10883e-07 -5.60077 7.82297e-07 -2.03231e-07 -6.72092 -3.47366e-06 4.68464e-06 -6.72092 -1.30631e-08 -7.87263e-07 -1.19271e-15 1.09925e-15 -3.18055e-15 8.04465 3.49397 -19.2195 -2.21424e-05 10.395 0.0142586 -5.62103 -15.6599 3.19225 3.97569e-16 7.95139e-16 -1.59028e-15 1.81331e-08 4.69756 -4.30096e-07 12.4594 -8.23857 6.88324 1.34357e-05 46.3794 0.00174233 -4.32522 -14.7485 -3.83531 3.18055e-15 -3.18055e-15 9.54166e-15 1.35867e-07 -10.745 -2.59575e-06
